#!OML:ASF H:\Dans Jumps\Project 1\Capture day 1\Session 1\subject.ASF
:FULLY-SPECIFIED
:DEGREES
157
root 0.459235 17.1721 -14.7679 10.4228 -0.936684 -1.47127
lowerback 3.82263 -0.229434 -0.17524
upperback 3.99325 -0.334261 1.87644
thorax 1.97148 -0.199067 2.03266
lowerneck -14.6224 -0.00631859 -2.34718
upperneck 22.6912 0.261394 1.27383
head 9.57948 0.0614117 0.868664
rclavicle -9.0447e-015 -2.18663e-014
rhumerus -22.3044 -16.484 -79.2275
rradius 24.0091
rwrist 32.7909
rhand -17.7038 -25.6658
rfingers 7.12502
rthumb 8.55619 -55.4725
lclavicle -9.0447e-015 -2.18663e-014
lhumerus -20.6867 4.7782 84.0169
lradius 17.4524
lwrist 1.51145
lhand -24.2 -3.39387
lfingers 7.12502
lthumb 2.28419 26.5736
rfemur -27.4763 -2.40892 19.6326
rtibia 34.894
rfoot -17.2356 -4.10095
rtoes 3.34166
lfemur -27.3985 9.44087 -19.188
ltibia 33.8627
lfoot -15.2568 4.39796
ltoes -2.92975
158
root 0.458577 17.1441 -14.7971 10.6509 -0.947409 -1.4679
lowerback 4.09899 -0.223549 -0.178085
upperback 4.05104 -0.32497 1.87886
thorax 1.87648 -0.194384 2.03782
lowerneck -14.7123 0.00761647 -2.32716
upperneck 22.369 0.291508 1.22264
head 9.4827 0.0734858 0.849423
rclavicle 4.37326e-015 -6.75868e-015
rhumerus -22.3714 -16.541 -79.138
rradius 23.9961
rwrist 32.7522
rhand -17.6952 -25.6859
rfingers 7.12502
rthumb 8.56452 -55.4922
lclavicle 4.37326e-015 -6.75868e-015
lhumerus -20.7596 4.89664 83.8664
lradius 17.3781
lwrist 1.4628
lhand -24.2183 -3.34057
lfingers 7.12502
lthumb 2.26653 26.6271
rfemur -28.2375 -2.43962 19.6525
rtibia 35.6368
rfoot -17.548 -4.12648
rtoes 3.13024
lfemur -28.1673 9.51717 -19.2607
ltibia 34.6128
lfoot -15.5407 4.49439
ltoes -3.0101
159
root 0.457934 17.1152 -14.8258 10.8829 -0.952978 -1.45533
lowerback 4.37316 -0.21947 -0.185984
upperback 4.11019 -0.31823 1.87794
thorax 1.78434 -0.191067 2.04241
lowerneck -14.8043 0.0221771 -2.30686
upperneck 22.04 0.322462 1.17028
head 9.3844 0.0859357 0.829898
rclavicle -2.08724e-015 1.98785e-015
rhumerus -22.4471 -16.6148 -79.0409
rradius 23.9734
rwrist 32.7376
rhand -17.6887 -25.7081
rfingers 7.12502
rthumb 8.57072 -55.5142
lclavicle -2.08724e-015 1.98785e-015
lhumerus -20.838 5.04248 83.7072
lradius 17.2851
lwrist 1.38769
lhand -24.2304 -3.28212
lfingers 7.12502
lthumb 2.25482 26.6857
rfemur -29.0059 -2.47064 19.6632
rtibia 36.3893
rfoot -17.8907 -4.17968
rtoes 2.81731
lfemur -28.9368 9.56695 -19.3407
ltibia 35.3671
lfoot -15.851 4.65151
ltoes -3.14718
160
root 0.457285 17.0855 -14.8538 11.1164 -0.959544 -1.43512
lowerback 4.64698 -0.215746 -0.200576
upperback 4.16993 -0.312205 1.87493
thorax 1.69321 -0.188242 2.04863
lowerneck -14.8942 0.0375565 -2.28532
upperneck 21.7043 0.354628 1.11471
head 9.28374 0.098787 0.809258
rclavicle -9.24349e-015 1.37161e-014
rhumerus -22.5308 -16.7115 -78.9334
rradius 23.9358
rwrist 32.7623
rhand -17.693 -25.7228
rfingers 7.12502
rthumb 8.56662 -55.529
lclavicle -9.24349e-015 1.37161e-014
lhumerus -20.928 5.22994 83.5376
lradius 17.1783
lwrist 1.27253
lhand -24.2047 -3.18457
lfingers 7.12502
lthumb 2.27963 26.783
rfemur -29.7763 -2.49379 19.6653
rtibia 37.1476
rfoot -18.2621 -4.26332
rtoes 2.40304
lfemur -29.7015 9.59549 -19.4259
ltibia 36.1223
lfoot -16.1889 4.87692
ltoes -3.38687
161
root 0.456578 17.0552 -14.8812 11.3531 -0.96532 -1.41052
lowerback 4.92098 -0.212096 -0.218338
upperback 4.2276 -0.306424 1.87043
thorax 1.6 -0.185563 2.0551
lowerneck -14.9753 0.0529704 -2.26405
upperneck 21.362 0.385964 1.06072
head 9.17955 0.111489 0.789138
rclavicle -3.57812e-015 1.2921e-014
rhumerus -22.6258 -16.8246 -78.8172
rradius 23.8867
rwrist 32.8176
rhand -17.6877 -25.7443
rfingers 7.12502
rthumb 8.57172 -55.5503
lclavicle -3.57812e-015 1.2921e-014
lhumerus -21.0242 5.44553 83.361
lradius 17.0469
lwrist 1.12658
lhand -24.227 -3.19076
lfingers 7.12502
lthumb 2.25813 26.777
rfemur -30.5479 -2.50628 19.6616
rtibia 37.9075
rfoot -18.6553 -4.37699
rtoes 1.92422
lfemur -30.463 9.60304 -19.5124
ltibia 36.8766
lfoot -16.5548 5.16912
ltoes -3.73557
162
root 0.455973 17.0248 -14.9077 11.5918 -0.970882 -1.3806
lowerback 5.19683 -0.209612 -0.240527
upperback 4.2815 -0.302387 1.86575
thorax 1.50212 -0.1838 2.06395
lowerneck -15.0522 0.0682572 -2.24233
upperneck 21.0223 0.417276 1.00359
head 9.07596 0.12391 0.767971
rclavicle -7.65321e-015 -1.17283e-014
rhumerus -22.73 -16.9493 -78.6913
rradius 23.8187
rwrist 32.9057
rhand -17.6844 -25.7677
rfingers 7.12502
rthumb 8.57495 -55.5735
lclavicle -7.65321e-015 -1.17283e-014
lhumerus -21.1331 5.69832 83.1773
lradius 16.8932
lwrist 0.938149
lhand -24.2633 -3.25036
lfingers 7.12502
lthumb 2.22304 26.7178
rfemur -31.3138 -2.51241 19.6499
rtibia 38.6633
rfoot -19.0643 -4.5103
rtoes 1.42441
lfemur -31.2173 9.59275 -19.6023
ltibia 37.6278
lfoot -16.9463 5.53739
ltoes -4.24253
163
root 0.455388 16.9942 -14.9335 11.8341 -0.97172 -1.34869
lowerback 5.47408 -0.20846 -0.26332
upperback 4.33134 -0.300205 1.86151
thorax 1.39948 -0.18292 2.07368
lowerneck -15.1228 0.0823345 -2.22152
upperneck 20.6835 0.446406 0.947405
head 8.97197 0.135391 0.747101
rclavicle -5.1684e-015 2.127e-014
rhumerus -22.846 -17.073 -78.5607
rradius 23.7437
rwrist 33.0049
rhand -17.6725 -25.8015
rfingers 7.12502
rthumb 8.58641 -55.6069
lclavicle -5.1684e-015 2.127e-014
lhumerus -21.2503 5.98806 82.9858
lradius 16.7183
lwrist 0.696489
lhand -24.3934 -3.48187
lfingers 7.12502
lthumb 2.09746 26.4876
rfemur -32.0732 -2.51089 19.6343
rtibia 39.4106
rfoot -19.4796 -4.66121
rtoes 0.950828
lfemur -31.9668 9.56201 -19.6909
ltibia 38.3757
lfoot -17.3577 5.97722
ltoes -4.8199
164
root 0.454964 16.964 -14.9584 12.0768 -0.96546 -1.31933
lowerback 5.75649 -0.209912 -0.281082
upperback 4.37792 -0.301333 1.85981
thorax 1.2909 -0.183546 2.08343
lowerneck -15.1936 0.0952807 -2.20321
upperneck 20.3525 0.474636 0.889538
head 8.87112 0.146087 0.726111
rclavicle 6.4605e-015 -2.78299e-015
rhumerus -22.9641 -17.2048 -78.4232
rradius 23.6511
rwrist 33.1262
rhand -17.66 -25.8446
rfingers 7.12502
rthumb 8.59844 -55.6495
lclavicle 6.4605e-015 -2.78299e-015
lhumerus -21.3696 6.32383 82.7859
lradius 16.5159
lwrist 0.38647
lhand -24.5343 -3.74131
lfingers 7.12502
lthumb 1.96132 26.2294
rfemur -32.8182 -2.50458 19.6199
rtibia 40.1448
rfoot -19.9025 -4.82706
rtoes 0.526492
lfemur -32.7049 9.50871 -19.7713
ltibia 39.1188
lfoot -17.7816 6.49203
ltoes -5.23649
165
root 0.454604 16.9341 -14.9824 12.3248 -0.952204 -1.29636
lowerback 6.03792 -0.213733 -0.291468
upperback 4.42216 -0.305363 1.86168
thorax 1.18071 -0.185469 2.09289
lowerneck -15.2733 0.107471 -2.18854
upperneck 20.0303 0.502347 0.832858
head 8.77526 0.156406 0.706242
rclavicle -3.77691e-015 1.49089e-014
rhumerus -23.0804 -17.3508 -78.2787
rradius 23.539
rwrist 33.2767
rhand -17.6441 -25.8844
rfingers 7.12502
rthumb 8.61378 -55.6886
lclavicle -3.77691e-015 1.49089e-014
lhumerus -21.4867 6.71406 82.5743
lradius 16.2882
lwrist -0.006209
lhand -24.6523 -3.97955
lfingers 7.12502
lthumb 1.84742 25.9922
rfemur -33.5533 -2.49036 19.6116
rtibia 40.8638
rfoot -20.3306 -5.01372
rtoes 0.153558
lfemur -33.4378 9.44068 -19.841
ltibia 39.8573
lfoot -18.2034 7.1
ltoes -5.44132
166
root 0.454262 16.9046 -15.0054 12.5735 -0.934615 -1.27814
lowerback 6.32145 -0.219143 -0.297909
upperback 4.46561 -0.311343 1.86681
thorax 1.06878 -0.1883 2.10369
lowerneck -15.3525 0.118497 -2.18012
upperneck 19.7067 0.528845 0.779862
head 8.67919 0.166158 0.688594
rclavicle -1.20265e-014 1.37161e-014
rhumerus -23.194 -17.5136 -78.127
rradius 23.41
rwrist 33.4572
rhand -17.6284 -25.9164
rfingers 7.12502
rthumb 8.62897 -55.72
lclavicle -1.20265e-014 1.37161e-014
lhumerus -21.6006 7.15789 82.3513
lradius 16.0369
lwrist -0.478123
lhand -24.7067 -4.13467
lfingers 7.12502
lthumb 1.79489 25.8375
rfemur -34.2729 -2.46729 19.6084
rtibia 41.5661
rfoot -20.7672 -5.23223
rtoes -0.185082
lfemur -34.1575 9.36622 -19.9023
ltibia 40.5897
lfoot -18.6244 7.7906
ltoes -5.34734
167
root 0.453951 16.8758 -15.0273 12.8252 -0.911596 -1.26435
lowerback 6.60458 -0.225913 -0.298733
upperback 4.50735 -0.318833 1.87355
thorax 0.955528 -0.191757 2.11318
lowerneck -15.4311 0.129932 -2.17189
upperneck 19.3809 0.555371 0.727971
head 8.58254 0.176124 0.671415
rclavicle -4.77083e-015 6.55989e-015
rhumerus -23.3071 -17.6979 -77.969
rradius 23.2696
rwrist 33.6673
rhand -17.5971 -25.9444
rfingers 7.12502
rthumb 8.65919 -55.7468
lclavicle -4.77083e-015 6.55989e-015
lhumerus -21.7109 7.65497 82.1148
lradius 15.7631
lwrist -1.02691
lhand -24.7236 -4.20986
lfingers 7.12502
lthumb 1.7785 25.7625
rfemur -34.9783 -2.43691 19.6097
rtibia 42.2527
rfoot -21.2144 -5.49694
rtoes -0.491086
lfemur -34.8674 9.29462 -19.959
ltibia 41.3137
lfoot -19.0572 8.52449
ltoes -4.99883
168
root 0.453578 16.8474 -15.048 13.0796 -0.885564 -1.255
lowerback 6.88855 -0.23339 -0.29814
upperback 4.54695 -0.327122 1.88417
thorax 0.839822 -0.195603 2.12603
lowerneck -15.5114 0.142046 -2.16744
upperneck 19.0535 0.582786 0.67936
head 8.48591 0.186671 0.656141
rclavicle -1.88845e-015 -1.45113e-014
rhumerus -23.4208 -17.9102 -77.8002
rradius 23.1176
rwrist 33.9152
rhand -17.5572 -25.9682
rfingers 7.12502
rthumb 8.69764 -55.769
lclavicle -1.88845e-015 -1.45113e-014
lhumerus -21.8226 8.20826 81.8674
lradius 15.4726
lwrist -1.64229
lhand -24.6807 -4.15962
lfingers 7.12502
lthumb 1.81994 25.8124
rfemur -35.6684 -2.39681 19.6151
rtibia 42.9247
rfoot -21.6693 -5.80702
rtoes -0.642567
lfemur -35.5675 9.23589 -20.0146
ltibia 42.0245
lfoot -19.508 9.24421
ltoes -4.54397
